<?xml version="1.0" standalone="no"?>
<!DOCTYPE svg PUBLIC "-//W3C//DTD SVG 20010904//EN"
 "http://www.w3.org/TR/2001/REC-SVG-20010904/DTD/svg10.dtd">
<svg version="1.0" xmlns="http://www.w3.org/2000/svg"
 width="890.000000pt" height="592.000000pt" viewBox="0 0 890.000000 592.000000"
 preserveAspectRatio="xMidYMid meet">
<metadata>
Created by potrace 1.13, written by Peter Selinger 2001-2015
</metadata>
<g transform="translate(0.000000,592.000000) scale(0.100000,-0.100000)"
fill="#000000" stroke="none">
<path d="M0 5734 l0 -186 613 6 c336 4 990 11 1452 16 462 6 939 10 1060 11
121 0 288 4 370 9 426 25 535 32 705 46 345 28 376 35 458 102 26 21 68 46 94
56 25 9 53 28 62 40 19 30 93 66 134 66 17 0 34 5 37 10 4 7 -828 10 -2489 10
l-2496 0 0 -186z"/>
<path d="M6711 5763 c5 -29 -6 -51 -35 -73 -48 -35 -56 -86 -18 -116 l27 -22
29 25 c16 13 35 22 42 19 16 -6 39 20 25 28 -5 3 -17 3 -26 -1 -15 -5 -16 -3
-7 13 8 14 7 23 -5 36 -10 12 -12 22 -5 33 6 11 5 26 -2 41 -10 22 -28 34 -25
17z"/>
<path d="M5519 5632 c-8 -4 -37 -27 -64 -52 -26 -25 -63 -59 -81 -76 -18 -17
-38 -43 -43 -57 -6 -15 -22 -32 -35 -37 -13 -5 -27 -13 -30 -19 -4 -6 -13 -8
-20 -5 -7 3 -19 -2 -26 -11 -7 -8 -10 -15 -6 -15 15 0 -29 -53 -51 -61 -13 -5
-23 -17 -23 -27 0 -10 -16 -33 -35 -52 -29 -28 -35 -41 -35 -75 0 -34 -5 -44
-25 -55 -15 -8 -25 -22 -25 -35 0 -21 -17 -45 -32 -45 -12 0 3 64 19 76 9 8
10 13 3 16 -17 5 11 98 32 109 18 9 26 49 10 49 -4 0 -18 -18 -32 -39 -19 -32
-27 -38 -41 -30 -12 6 -19 4 -23 -6 -3 -8 -12 -12 -21 -9 -8 3 -15 2 -15 -3 0
-20 -40 -51 -59 -46 -11 3 -32 -5 -49 -17 -25 -19 -38 -22 -71 -16 -37 6 -41
4 -41 -14 0 -11 4 -20 9 -20 5 0 16 -14 25 -30 13 -28 13 -31 -5 -40 -22 -12
-67 -8 -77 6 -23 34 -98 14 -122 -31 -8 -15 -36 -38 -63 -52 -27 -13 -64 -40
-83 -58 -30 -30 -34 -41 -34 -84 0 -41 -3 -49 -15 -45 -10 4 -13 13 -10 25 9
28 -19 24 -92 -11 -34 -17 -76 -33 -94 -37 -37 -7 -116 -49 -126 -67 -13 -22
-48 -35 -107 -42 -31 -4 -63 -12 -72 -19 -16 -11 -15 -15 6 -53 13 -23 27 -42
30 -42 4 0 23 -24 43 -53 28 -41 37 -64 37 -95 0 -39 -3 -43 -53 -76 -64 -41
-97 -79 -97 -115 0 -38 -24 -67 -73 -89 -23 -11 -53 -31 -66 -45 -13 -15 -38
-29 -55 -33 -17 -3 -46 -18 -64 -33 -31 -25 -33 -30 -25 -61 9 -34 11 -35 59
-34 27 0 89 8 137 18 99 19 124 15 137 -20 11 -29 29 -30 72 -4 18 11 44 20
58 20 18 0 38 16 74 60 28 33 53 60 57 60 16 0 59 -63 59 -86 0 -18 -11 -29
-47 -48 -58 -30 -51 -33 19 -7 29 11 76 24 103 30 69 14 208 57 245 76 30 16
43 42 15 31 -16 -6 -21 9 -6 19 5 3 17 28 26 55 20 61 51 85 97 76 18 -4 42
-13 52 -21 18 -14 18 -15 -5 -34 -23 -19 -23 -20 -4 -21 35 0 64 27 59 55 -4
21 0 25 18 26 23 0 23 0 -2 11 l-25 11 25 5 c13 2 26 -1 28 -7 5 -14 52 -14
88 -1 21 8 32 7 53 -7 l26 -18 -35 -6 c-32 -6 -32 -6 -7 -8 16 0 26 -5 22 -11
-3 -5 -12 -7 -19 -4 -8 3 -17 0 -21 -5 -11 -19 -76 -41 -121 -41 -43 0 -69
-15 -37 -22 15 -4 11 -11 -20 -41 -21 -20 -47 -37 -57 -37 -11 0 -27 -8 -37
-19 -46 -47 -149 -91 -216 -91 -22 0 -42 -27 -38 -52 1 -5 0 -8 -1 -8 -2 -1
-28 -3 -58 -6 -30 -3 -60 -7 -65 -8 -6 -2 -39 3 -75 10 -87 18 -96 18 -120 -8
-15 -16 -20 -33 -18 -58 3 -33 5 -35 50 -41 26 -4 55 -16 67 -28 12 -12 34
-21 51 -21 26 0 30 -4 35 -37 3 -21 9 -50 14 -64 6 -20 4 -29 -11 -38 -16 -10
-20 -8 -29 16 -15 40 -47 72 -68 66 -28 -7 -43 19 -31 52 13 33 -2 49 -35 39
-11 -4 -37 -7 -58 -8 -26 -2 -47 -11 -65 -29 -24 -25 -25 -27 -7 -27 11 0 37
-11 57 -25 20 -14 49 -25 63 -25 18 0 29 -6 32 -20 7 -26 20 -26 28 0 8 25 16
25 48 0 18 -14 27 -33 32 -69 8 -61 34 -104 82 -134 46 -29 75 -61 95 -103 14
-28 13 -33 -3 -56 -10 -13 -20 -35 -22 -49 -5 -27 13 -122 26 -135 4 -4 7 -15
7 -24 0 -9 16 -31 35 -49 19 -17 35 -36 35 -41 0 -4 -13 -15 -29 -23 -19 -9
-28 -11 -26 -3 3 6 7 24 9 39 5 26 3 28 -27 25 -18 -2 -41 -11 -52 -21 -10
-10 -26 -15 -33 -12 -8 3 -21 0 -29 -7 -12 -10 -14 -9 -12 3 2 7 -3 24 -10 37
-7 13 -11 31 -9 40 2 9 -3 22 -12 29 -13 10 -13 16 -3 44 7 18 11 34 9 36 -7
7 -55 -20 -60 -34 -9 -23 64 -170 91 -182 26 -12 31 -39 9 -47 -8 -3 -30 2
-49 11 -33 15 -36 15 -72 -6 -37 -22 -37 -22 -16 -39 26 -19 17 -32 -15 -24
-20 5 -24 2 -24 -15 0 -17 -8 -22 -40 -27 -45 -7 -72 -30 -51 -44 22 -13 54 0
89 37 31 34 36 35 116 40 76 5 86 4 115 -18 19 -14 29 -29 26 -38 -3 -9 2 -28
9 -43 8 -15 17 -42 21 -60 4 -18 16 -44 26 -57 11 -13 19 -33 19 -45 0 -23
-48 -75 -88 -95 -30 -16 -19 -31 24 -31 38 0 39 -2 22 -30 -10 -15 -10 -22 -1
-31 9 -9 6 -19 -12 -41 -30 -36 -31 -49 -5 -73 11 -10 20 -21 20 -24 0 -13
-68 -49 -111 -59 -25 -6 -66 -23 -92 -38 -41 -22 -47 -30 -47 -58 0 -18 -5
-37 -11 -43 -7 -7 -9 -19 -6 -27 7 -19 50 -21 95 -5 22 8 36 7 52 -1 l22 -12
-30 -31 c-16 -18 -35 -42 -41 -54 -13 -25 -92 -53 -226 -81 -49 -11 -129 -31
-177 -45 -114 -35 -168 -43 -168 -27 0 6 15 37 34 68 19 32 37 72 41 90 4 19
27 58 51 88 34 42 44 62 44 91 0 22 9 48 20 63 28 35 25 40 -17 28 -72 -19
-140 -58 -182 -103 -43 -46 -76 -67 -121 -78 -42 -11 -121 -87 -146 -141 -32
-69 -34 -181 -4 -219 18 -23 20 -31 10 -66 -7 -29 -7 -46 1 -65 12 -26 19 -29
76 -41 44 -9 49 -20 17 -42 -75 -52 -90 -71 -93 -114 -1 -23 -6 -49 -10 -58
-15 -29 -7 -163 12 -203 10 -20 60 -78 111 -130 50 -51 99 -105 109 -120 20
-32 64 -53 143 -67 56 -11 100 -35 143 -78 22 -23 23 -31 19 -101 -3 -43 -11
-87 -18 -99 -11 -16 -11 -25 -2 -35 34 -42 384 -57 435 -19 33 25 74 41 105
41 36 0 77 -22 77 -40 0 -8 4 -20 8 -26 10 -17 -39 -61 -81 -74 -46 -14 -115
-43 -122 -50 -3 -3 -22 -16 -43 -29 -43 -26 -88 -87 -80 -107 4 -12 367 -14
2369 -14 l2364 0 0 70 c0 70 0 70 -27 70 -16 0 -53 7 -83 15 -43 11 -63 12
-92 3 -28 -8 -48 -8 -81 2 -25 6 -54 9 -66 5 -11 -3 -43 -6 -71 -7 -41 0 -54
-4 -69 -24 -10 -13 -24 -24 -30 -24 -15 0 -14 6 5 35 l16 25 -58 0 c-104 -1
-266 -19 -281 -32 -9 -7 -17 -8 -21 -2 -4 5 -32 10 -62 11 -91 4 -95 6 -95 55
0 34 4 44 20 49 11 3 19 11 18 17 -2 7 8 14 22 18 26 6 35 24 13 24 -9 0 -8 4
2 10 8 5 23 7 34 4 12 -4 16 -2 12 5 -4 6 -2 11 5 11 7 0 20 7 29 15 22 20 60
27 76 14 9 -7 20 -6 37 6 13 8 31 13 40 10 8 -4 18 -1 22 5 6 9 10 9 16 -1 6
-11 12 -11 33 0 13 8 38 11 55 9 17 -2 32 0 34 5 6 19 112 47 197 53 46 3 88
8 92 10 4 3 24 -4 45 -14 57 -29 99 -34 118 -15 15 14 18 14 36 -6 11 -11 29
-21 39 -21 18 0 20 7 20 75 0 85 1 85 -97 66 -26 -5 -111 -15 -188 -21 -77 -6
-157 -12 -178 -15 -30 -2 -37 0 -33 11 3 8 1 14 -4 14 -6 0 -10 -7 -10 -15 0
-8 -4 -15 -10 -15 -14 0 -12 23 3 39 10 11 7 12 -13 7 -18 -4 -16 -2 8 9 17 8
32 21 32 29 0 8 8 13 18 12 11 -1 17 6 16 21 0 12 3 20 8 17 13 -8 9 21 -4 35
-11 11 -10 13 0 7 7 -4 15 -1 18 8 3 9 11 16 16 16 6 0 4 -7 -3 -17 -11 -13
-11 -17 -1 -20 6 -3 12 -13 12 -24 0 -22 1 -23 33 -8 18 8 23 17 19 32 -4 17
-1 19 21 15 26 -5 57 15 43 29 -7 7 23 43 36 43 5 0 7 -9 3 -20 -8 -26 1 -41
21 -33 12 4 13 8 3 14 -10 6 -10 11 0 23 7 9 17 13 22 10 5 -3 9 3 10 13 0 14
2 14 9 -4 11 -28 24 -31 17 -4 -3 13 3 22 17 29 18 8 25 6 39 -11 21 -26 21
-36 2 -43 -8 -4 -15 -13 -15 -21 0 -8 -6 -13 -13 -10 -6 2 -18 -2 -25 -9 -7
-8 -10 -14 -6 -14 3 0 1 -7 -6 -15 -17 -20 -1 -19 22 2 17 15 18 15 18 0 0
-10 -4 -17 -10 -17 -19 0 -10 -16 10 -17 24 -2 37 16 19 28 -7 4 -11 11 -7 14
3 4 18 -1 32 -10 26 -17 26 -17 26 8 0 13 7 30 15 37 9 8 15 8 15 2 0 -6 -6
-12 -12 -15 -7 -2 -10 -7 -7 -11 4 -4 13 -1 20 7 8 7 20 12 26 10 10 -4 12
118 13 536 0 298 -4 541 -8 541 -5 0 -16 -8 -25 -18 -21 -23 -113 -24 -128 -1
-13 20 -12 24 17 58 21 26 24 34 14 46 -22 27 -4 48 35 42 19 -3 35 -2 35 4 0
5 -4 9 -9 9 -5 0 -1 15 8 34 15 32 17 33 35 17 18 -15 19 -15 14 7 -4 12 -2
22 3 22 5 0 9 11 9 24 0 19 -4 23 -19 19 -10 -3 -22 1 -26 7 -9 15 13 30 32
23 10 -4 13 9 13 57 0 61 -1 62 -47 105 -26 24 -51 43 -56 42 -5 -1 -12 4 -15
12 -2 8 0 11 6 7 5 -3 13 1 16 10 9 24 7 31 -4 14 -8 -12 -10 -12 -11 5 0 11
-3 14 -6 8 -8 -21 -37 -15 -48 9 -6 12 -21 25 -35 29 -23 7 -23 7 7 8 17 1 44
-4 60 -10 18 -7 29 -7 31 0 2 5 10 7 18 4 8 -3 14 0 14 6 0 6 -5 11 -11 11 -6
0 -9 7 -5 15 4 11 -2 15 -24 15 -17 0 -30 -5 -30 -10 0 -6 -10 -8 -23 -5 -12
3 -51 -1 -87 -9 -73 -17 -90 -11 -73 28 18 37 -4 52 -35 23 -16 -14 -23 -17
-20 -7 7 23 110 89 140 90 l26 0 -29 29 c-23 24 -29 38 -29 73 0 24 4 49 9 57
5 8 41 24 81 37 40 13 97 38 126 55 l54 30 0 615 c0 377 -4 614 -9 614 -6 0
-13 -4 -16 -10 -3 -5 -12 -10 -18 -10 -7 0 0 8 14 17 27 16 27 16 28 161 1
114 -1 143 -11 138 -7 -3 -32 -11 -55 -18 -28 -8 -43 -18 -43 -29 0 -16 -7
-19 -122 -48 -43 -11 -54 -2 -64 50 -4 19 -12 43 -17 54 -6 11 -12 37 -13 57
-2 52 31 83 78 73 50 -11 80 -33 77 -58 -2 -12 3 -32 10 -45 10 -19 18 -22 43
-17 23 5 29 4 23 -5 -6 -10 2 -11 31 -6 22 3 45 7 52 8 18 2 15 18 -4 18 -15
0 -15 2 0 25 13 20 16 57 16 225 0 152 -3 200 -12 202 -7 0 -24 3 -38 5 -14 2
-70 6 -125 7 -55 2 -113 7 -130 10 -59 11 -131 18 -175 17 -25 -1 -51 3 -59 8
-10 7 -18 5 -25 -5 -6 -7 -29 -16 -51 -20 -22 -3 -42 -7 -45 -9 -3 -1 -16 2
-30 7 -14 5 -86 10 -160 11 -74 2 -141 6 -148 11 -7 4 -19 3 -26 -3 -10 -8
-22 -8 -41 -1 -15 6 -32 7 -38 3 -6 -3 -22 -8 -36 -9 -52 -6 -66 -9 -73 -18
-10 -15 -118 -13 -118 2 0 6 -7 12 -15 12 -8 0 -15 7 -15 15 0 19 -48 31 -63
16 -6 -6 -21 -11 -34 -11 -12 0 -26 -7 -31 -17 -7 -11 -15 -14 -28 -8 -18 7
-18 7 1 15 19 7 19 7 -3 14 -12 4 -35 6 -50 5 -15 -2 -48 3 -74 10 -41 12 -49
11 -63 -3 -10 -10 -33 -16 -60 -16 -67 0 -198 20 -214 33 -10 9 -16 7 -27 -7
-14 -20 -46 -22 -112 -8 -24 5 -45 6 -48 1 -3 -5 2 -9 12 -9 13 0 14 -3 4 -14
-6 -8 -18 -12 -26 -9 -8 3 -20 0 -28 -6 -9 -8 -26 -9 -52 -3 -41 9 -79 8 -104
-1 -22 -8 -108 -21 -155 -23 -22 -1 -42 -3 -45 -4 -3 -1 -29 -4 -57 -5 -35 -1
-53 2 -53 9 0 7 -5 17 -12 24 -9 9 -15 9 -27 -2 -25 -22 -56 -24 -56 -4 0 26
-15 23 -35 -6 -9 -15 -20 -23 -23 -19 -4 3 -7 1 -7 -5 0 -7 -7 -12 -15 -12 -8
0 -15 -4 -15 -8 0 -5 -13 -9 -30 -10 -16 0 -30 4 -30 9 0 5 -9 9 -20 9 -11 0
-20 5 -20 10 0 6 -5 10 -12 10 -9 0 -9 -3 0 -12 7 -7 12 -19 12 -28 0 -11 -2
-12 -8 -2 -7 10 -17 9 -50 -2 -25 -9 -44 -11 -47 -5 -4 5 -2 9 4 9 6 0 8 7 5
15 -9 24 -24 18 -35 -14 -12 -35 -51 -46 -92 -24 -23 12 -26 17 -16 29 7 9 24
13 44 11 60 -7 94 43 44 65 -29 13 -39 28 -18 28 6 0 8 8 5 18 -4 13 4 21 34
34 22 9 40 12 40 7 0 -5 11 -9 25 -9 34 0 31 15 -6 34 -32 16 -63 9 -71 -15
-5 -15 -63 2 -63 19 0 5 -3 14 -7 18 -5 4 -8 -2 -8 -14 0 -12 -4 -22 -8 -22
-5 0 -7 14 -4 30 3 21 0 30 -9 30 -11 0 -11 2 1 10 21 14 30 12 30 -5 0 -17
16 -20 25 -4 4 6 24 9 44 8 20 -2 41 -1 46 2 6 3 25 5 43 5 24 -1 32 3 32 17
0 10 4 27 10 37 7 13 6 19 -5 23 -10 4 -13 18 -10 48 3 23 7 44 9 47 3 2 1 12
-4 22 -11 21 9 70 29 70 8 0 2 9 -13 21 -14 11 -26 27 -26 34 0 9 -6 12 -15 9
-10 -4 -15 0 -15 11 0 9 -5 13 -10 10 -6 -4 -17 -1 -25 5 -11 10 -15 10 -15 1
0 -7 -5 -9 -10 -6 -6 4 -7 12 -4 18 5 8 3 8 -7 0 -7 -7 -22 -13 -33 -12 -12 0
-15 3 -8 6 26 10 10 23 -27 19 -48 -4 -61 -12 -61 -37 0 -10 -4 -19 -10 -19
-5 0 -10 -7 -10 -15 0 -11 -8 -13 -30 -8 -23 4 -30 2 -30 -11 0 -9 -4 -16 -9
-16 -5 0 -16 -3 -25 -6 -11 -4 -16 0 -16 12 0 12 -3 15 -8 8 -10 -15 -53 -37
-59 -30 -3 3 -14 1 -23 -4 -15 -8 -17 -6 -13 11 5 18 3 20 -16 14 -13 -4 -21
-2 -21 5 0 7 14 11 33 10 49 -3 56 1 18 10 -19 5 -39 6 -45 4 -16 -7 -58 -75
-51 -82 3 -4 10 0 15 8 5 8 12 11 15 8 13 -13 -7 -28 -37 -28 -24 0 -28 -3
-19 -13 8 -11 0 -16 -40 -27 -46 -13 -75 -30 -50 -30 6 0 11 -4 11 -9 0 -15
-38 -20 -55 -7 -14 10 -14 15 0 49 8 20 24 43 35 49 11 7 20 17 20 23 0 12 55
65 67 65 5 0 15 16 22 35 7 19 16 35 21 35 4 0 10 10 14 23 7 28 137 163 166
172 11 4 18 11 15 16 -7 10 -23 11 -46 1z m16 -596 c-17 -16 -22 -27 -15 -31
6 -4 9 -13 6 -20 -6 -16 11 -31 38 -36 11 -2 20 -12 22 -22 2 -15 -2 -18 -23
-12 -23 5 -25 3 -20 -16 9 -36 -17 -53 -81 -51 -30 1 -59 7 -63 13 -10 16 -20
99 -13 110 3 5 19 9 35 9 45 0 72 17 60 38 -12 21 13 41 52 42 l28 0 -26 -24z
m-197 -136 c12 0 22 -5 22 -10 0 -6 -6 -10 -12 -9 -7 1 -22 1 -32 0 -19 -1
-19 -1 0 -18 35 -31 65 -44 85 -38 21 7 27 -10 7 -19 -7 -3 1 -5 18 -3 26 3
30 0 26 -15 -2 -10 1 -24 7 -32 9 -11 9 -15 -1 -19 -8 -3 -6 -6 5 -6 17 -1 17
-3 3 -16 -15 -15 -58 -16 -72 -2 -4 4 -16 -5 -26 -20 -10 -16 -18 -23 -18 -16
0 6 5 15 10 18 18 11 10 26 -10 20 -17 -5 -21 -1 -26 24 -4 17 -12 32 -18 32
-50 6 -62 6 -67 -2 -3 -5 -17 -10 -32 -11 -27 -2 -39 -18 -14 -18 11 0 34 -21
49 -46 4 -6 -7 -8 -28 -6 -26 3 -36 10 -40 29 -4 13 -15 28 -26 32 -15 5 -21
18 -23 54 -1 26 1 45 5 42 5 -3 6 3 3 14 -3 10 0 22 6 25 6 4 11 -1 11 -11 0
-21 29 -66 30 -46 0 6 -5 15 -12 19 -16 10 58 35 80 27 15 -6 15 -5 3 10 -11
15 -11 17 2 17 8 0 18 7 21 16 6 16 8 16 24 0 10 -9 28 -16 40 -16z m-967
-272 c6 -9 1 -19 -13 -31 -15 -13 -22 -29 -21 -53 1 -35 -10 -46 -21 -19 -11
30 -33 16 -39 -26 -3 -23 -9 -45 -14 -49 -4 -5 -42 -10 -83 -12 l-75 -3 -3 33
c-5 48 21 82 61 82 28 0 36 5 50 35 11 23 24 35 37 35 11 0 23 7 27 16 5 13
15 15 46 11 22 -3 44 -11 48 -19z m622 -695 c-13 -8 -23 -20 -23 -25 0 -7 4
-7 13 -1 6 6 26 13 42 17 28 6 29 6 10 -9 -18 -14 -17 -15 15 -9 34 5 34 5 15
-11 -11 -9 -44 -29 -74 -43 -35 -16 -61 -38 -73 -59 -11 -18 -24 -33 -29 -33
-12 0 -30 36 -21 44 3 4 0 11 -8 16 -11 7 -7 15 19 39 18 17 30 35 27 40 -8
12 16 30 51 41 46 14 61 11 36 -7z m3465 -649 c14 -10 22 -25 22 -45 0 -29
-15 -40 -23 -16 -3 9 -7 9 -20 -1 -13 -11 -17 -10 -26 5 -9 15 -10 12 -11 -19
0 -28 -4 -38 -16 -38 -9 0 -12 5 -8 13 4 7 2 7 -7 -2 -11 -10 -11 -15 -1 -18
25 -9 11 -22 -18 -16 -19 3 -30 1 -30 -6 0 -18 -18 -13 -23 7 -4 16 -4 16 -12
-2 -5 -12 -3 -21 6 -27 8 -5 10 -9 4 -9 -21 0 -32 16 -37 50 -4 26 0 38 16 53
12 10 15 16 9 12 -7 -3 -13 -1 -13 4 0 6 5 11 10 11 6 0 9 6 8 12 -4 16 95 28
118 15 10 -6 20 -5 27 2 8 8 8 11 -1 11 -7 0 -12 5 -12 10 0 14 12 12 38 -6z
m-489 -44 c44 -22 76 -68 86 -123 9 -46 -11 -66 -67 -67 -28 0 -38 5 -43 20
-3 11 -11 20 -16 20 -14 0 -11 38 6 64 15 22 14 27 -5 60 -11 20 -20 39 -20
41 0 10 22 4 59 -15z m-1518 -249 c-27 -21 -17 -33 24 -25 15 3 33 6 39 7 6 1
10 -10 9 -25 -2 -24 3 -29 35 -38 20 -5 45 -10 56 -10 10 0 50 -11 88 -25 38
-14 82 -25 98 -25 27 0 79 -18 90 -31 3 -3 28 -11 55 -18 28 -7 67 -19 88 -27
20 -8 47 -14 58 -14 11 0 39 -9 61 -20 23 -11 46 -20 51 -20 37 0 280 -146
306 -184 48 -69 160 -136 226 -136 14 0 48 -13 77 -28 50 -27 87 -36 203 -51
36 -4 51 -11 53 -23 2 -13 -3 -18 -17 -18 -12 0 -21 -4 -21 -9 0 -14 -53 -20
-213 -26 -82 -4 -192 -1 -250 5 -97 11 -145 18 -337 54 -47 9 -112 21 -145 26
-33 5 -100 16 -150 24 -76 12 -160 20 -315 31 -14 1 -76 6 -138 10 l-113 8 7
-26 c4 -20 2 -27 -8 -27 -19 0 -38 20 -38 42 0 10 -6 18 -12 18 -34 0 -278 41
-304 50 -26 10 -64 42 -64 54 0 3 19 15 42 27 39 20 68 27 122 28 15 1 16 4 7
15 -15 18 0 29 32 21 20 -5 24 -3 23 16 -1 17 11 28 49 48 28 14 53 30 57 35
4 6 24 9 45 7 32 -2 35 -1 24 12 -15 18 -10 29 48 106 46 62 49 71 20 64 -18
-5 -19 -2 -13 23 7 28 6 28 -12 12 -18 -15 -84 -23 -84 -9 1 15 118 90 140 90
l25 1 -24 -19z m-643 -156 c7 -22 28 -54 47 -71 19 -17 35 -35 35 -40 0 -22
-87 -94 -120 -100 -19 -4 -44 -13 -55 -21 -31 -21 -56 -16 -150 32 -106 53
-119 64 -102 85 13 16 73 60 81 60 3 0 40 17 83 37 158 75 162 75 181 18z
m2487 -35 c28 -5 64 -12 80 -16 17 -4 53 -7 80 -8 43 -1 50 -4 50 -21 0 -14
-6 -19 -20 -18 -11 1 -45 5 -75 8 -30 4 -80 8 -110 11 -30 2 -95 8 -144 12
-92 7 -120 23 -74 41 25 10 134 6 213 -9z m185 -176 c44 -18 45 -19 26 -53
-11 -21 -11 -30 1 -58 12 -31 12 -36 -4 -56 -21 -26 -60 -33 -82 -14 -10 8
-33 12 -61 9 -25 -2 -65 -3 -89 -3 -28 0 -54 -7 -72 -19 -15 -11 -34 -20 -43
-20 -24 0 -20 41 4 47 12 3 20 14 20 25 0 17 5 20 29 15 17 -4 31 -2 33 4 6
17 79 38 110 32 32 -6 33 -5 13 33 -16 31 -19 57 -8 67 12 13 82 7 123 -9z
m-625 -491 c0 -12 19 -40 42 -62 38 -37 41 -44 36 -81 -4 -25 -11 -40 -19 -40
-8 0 -14 -7 -14 -16 0 -13 -7 -15 -32 -10 -45 9 -68 33 -68 73 0 18 -4 33 -8
33 -5 0 -14 11 -20 25 -8 18 -8 25 -1 25 6 0 9 9 6 20 -3 13 2 28 16 41 28 26
62 21 62 -8z m-628 -13 c-6 -25 13 -41 63 -50 38 -7 50 4 25 22 -6 4 -1 8 9 8
11 0 28 -8 38 -17 18 -16 19 -16 24 4 6 24 30 37 46 27 7 -5 4 -12 -7 -21 -17
-12 -17 -13 -2 -13 9 0 17 -4 17 -9 0 -5 9 -13 20 -16 26 -8 26 -25 1 -25 -11
0 -23 -5 -27 -12 -5 -7 -11 -5 -21 7 -12 17 -13 17 -13 2 0 -9 -4 -17 -10 -17
-16 0 -12 -17 6 -24 10 -4 22 1 29 11 8 10 17 14 22 10 9 -9 -23 -37 -43 -37
-7 0 -19 7 -28 15 -8 8 -19 15 -25 15 -6 0 -13 11 -17 25 -8 30 -18 31 -45 4
-13 -13 -18 -27 -14 -40 5 -15 2 -22 -14 -26 -12 -3 -21 -13 -21 -23 0 -10 -7
-21 -16 -24 -28 -11 -36 -6 -20 10 24 23 19 34 -13 34 -23 0 -36 9 -59 41 -33
44 -33 74 -1 64 15 -5 20 0 26 25 5 27 10 31 29 27 16 -3 24 0 24 9 0 8 5 14
11 14 6 0 9 -9 6 -20z m-3082 -594 c22 -34 22 -86 0 -102 -32 -23 -118 -36
-320 -45 -110 -5 -220 -12 -245 -15 -64 -9 -42 7 53 38 78 25 82 28 81 55 0
15 -4 36 -8 46 -13 27 26 22 60 -9 26 -23 35 -25 84 -20 30 2 102 21 160 40
58 19 108 35 112 36 4 0 15 -11 23 -24z m2805 -614 c0 -5 7 -9 15 -9 8 0 15 4
15 9 0 11 68 10 90 -2 14 -8 25 -7 40 2 33 21 43 -1 23 -50 l-18 -43 -50 7
c-27 3 -61 13 -74 21 -13 8 -20 10 -17 4 9 -14 0 -14 -27 0 -42 22 -58 41 -46
56 12 14 49 18 49 5z m-409 -71 c0 10 2 11 6 2 2 -7 11 -13 19 -13 8 0 14 -7
14 -16 0 -20 -50 -134 -59 -134 -19 0 -81 53 -81 69 0 11 -7 21 -15 25 -8 3
-15 10 -15 17 0 6 7 9 15 5 9 -3 15 0 15 9 0 8 9 15 20 15 11 0 20 6 21 13 0
10 2 10 6 0 7 -18 23 -16 23 3 0 14 3 14 15 4 12 -10 15 -10 16 1z m1869 -60
c7 -11 17 -18 20 -16 4 3 5 -7 2 -20 -2 -14 -8 -22 -13 -19 -5 3 -9 1 -9 -5 0
-5 6 -12 13 -14 6 -3 -3 -4 -20 -3 -38 4 -38 4 -16 -31 l17 -26 -27 5 c-25 5
-27 3 -27 -29 0 -30 -3 -34 -20 -28 -15 5 -20 2 -20 -14 0 -23 -37 -38 -53
-22 -7 7 -14 7 -23 0 -7 -6 -19 -7 -26 -3 -7 5 -22 8 -33 9 -14 0 -19 6 -18
20 1 10 -3 27 -8 36 -7 14 -2 18 26 23 19 4 35 12 35 17 0 6 -9 8 -20 4 -16
-5 -19 -3 -14 10 5 12 14 15 30 11 23 -6 26 -3 28 27 1 6 9 18 19 26 10 7 16
19 13 27 -3 8 -1 14 4 14 8 0 15 -46 11 -72 0 -5 4 -8 9 -8 6 0 10 6 8 13 -3
20 13 58 23 52 5 -4 9 -1 9 6 0 7 7 4 15 -7 11 -15 14 -16 15 -3 0 15 18 39
30 39 3 0 12 -9 20 -19z"/>
<path d="M3625 3779 c-11 -6 -37 -23 -58 -37 l-38 -25 29 -13 c16 -6 41 -24
55 -40 l26 -27 28 30 c43 45 79 66 105 58 22 -6 22 -6 4 9 -11 9 -32 16 -46
16 -15 0 -37 9 -50 20 -26 23 -28 23 -55 9z"/>
<path d="M0 1560 l0 -201 103 4 c212 8 483 29 499 38 10 5 88 11 174 14 86 3
162 9 168 12 6 4 23 6 38 4 25 -2 40 3 78 28 26 17 -18 40 -77 41 -28 0 -55 5
-59 11 -3 6 -17 9 -30 6 -13 -2 -21 0 -18 4 3 5 2 9 -3 10 -4 0 -44 5 -88 10
-44 5 -111 12 -150 15 -95 7 -115 12 -115 29 0 10 11 15 35 15 59 0 39 20 -22
21 -32 1 -48 4 -35 6 12 2 22 8 22 13 0 9 124 22 201 22 27 -1 49 3 49 9 0 5
7 9 15 9 8 0 15 5 15 10 0 6 14 10 32 10 23 0 29 3 21 11 -9 9 -242 24 -353
22 -63 -1 -454 17 -477 22 l-23 5 0 -200z"/>
</g>
</svg>
